<?xml version="1.0" encoding="UTF-8" standalone="no"?><svg xmlns="http://www.w3.org/2000/svg" xmlns:xlink="http://www.w3.org/1999/xlink" fill="#000000" height="520.9" preserveAspectRatio="xMidYMid meet" version="1" viewBox="0.0 0.0 706.2 520.9" width="706.2" zoomAndPan="magnify"><g id="change1_1"><path clip-rule="evenodd" d="M286.06,210.05l-76.01-76.01L96.81,247.29l-16.64-16.64 l129.88-129.89l92.65,92.65L496.12,0l210.05,210.05l-37.24,37.24l-16.64-16.64l20.6-20.6L496.12,33.28l-319.81,319.8l33.74,33.74 c95.06-95.06,190.12-190.13,285.19-285.19l0.87-0.87l210.05,210.05L496.12,520.87L366.23,390.98l16.64-16.64l113.25,113.25 l176.77-176.78L546.5,184.42L420.1,310.82l76.01,76.01l113.24-113.24L626,290.22L496.12,420.1l-92.65-92.65L210.05,520.87L0,310.82 l37.23-37.23l16.64,16.64l-20.6,20.59l176.77,176.78l319.8-319.81l-33.74-33.74c-95.06,95.06-190.13,190.13-285.19,285.19 l-0.87,0.87L0,210.05L210.05,0l129.88,129.88l-16.64,16.64L210.05,33.28L33.28,210.05l126.39,126.39L286.06,210.05z" fill="#000000" fill-rule="evenodd"/></g></svg>